<svg width="590" height="390" xmlns="http://www.w3.org/2000/svg">
 <!-- Created with Method Draw - http://github.com/duopixel/Method-Draw/ -->

 <g id="Layer_1">
  <title>Layer 1</title>
  <rect stroke="#42affa" id="svg_96" height="105" width="234.93937" y="8.22727" x="149.40908" opacity="undefined" fill-opacity="null" stroke-dasharray="null" stroke-width="3" fill="none"/>
  <!-- Generator: Sketch 64 (93537) - https://sketch.com -->
  <desc>Created with Sketch.</desc>
  <defs>
   <linearGradient id="svg_11" y2="0%" x2="100%" y1="100%" x1="0%">
    <stop offset="0%" stop-color="#4D27A8"/>
    <stop offset="100%" stop-color="#A166FF"/>
   </linearGradient>
  </defs>
  <defs>
   <linearGradient id="svg_26" y2="0%" x2="100%" y1="100%" x1="0%">
    <stop offset="0%" stop-color="#1B660F"/>
    <stop offset="100%" stop-color="#6CAE3E"/>
   </linearGradient>
  </defs>
  <defs>
   <linearGradient id="svg_43" y2="0%" x2="100%" y1="100%" x1="0%">
    <stop offset="0%" stop-color="#B0084D"/>
    <stop offset="100%" stop-color="#FF4F8B"/>
   </linearGradient>
  </defs>
  <g stroke="null" id="svg_46">
   <g stroke="null" transform="matrix(2.062500050813294,0,0,2.062500050813294,229.88653303968647,275.1662489768704) " fill-rule="evenodd" fill="none" id="svg_39">
    <g stroke="null" fill="url(#svg_43)" id="svg_42">
     <rect stroke="null" id="svg_45" height="24" width="24" y="-55.79535" x="-25.01355"/>
    </g>
    <g stroke="null" fill="#FFFFFF" id="svg_40">
     <path stroke="null" id="svg_41" d="m-19.01355,-49.02783l2,-1.33305l0,13.13148l-2,-1.33305l0,-10.46538zm-1,-0.26801l0,11.0004c0,0.167 0.084,0.32401 0.223,0.41601l3,2.00008c0.084,0.056 0.18,0.084 0.277,0.084c0.081,0 0.162,-0.019 0.236,-0.059c0.162,-0.08701 0.264,-0.25601 0.264,-0.44102l0,-2.50009l1,0l0,-1.00004l-1,0l0,-8.00029l1,0l0,-1.00004l-1,0l0,-2.50009c0,-0.184 -0.102,-0.35401 -0.264,-0.44001c-0.162,-0.08701 -0.359,-0.07801 -0.513,0.024l-3,2.00007c-0.139,0.093 -0.223,0.24901 -0.223,0.41602l0,0zm14,10.73339l-2,1.33305l0,-13.13148l2,1.33305l0,10.46538zm0.777,-11.14941l-3,-2.00007c-0.154,-0.10201 -0.351,-0.11101 -0.513,-0.024c-0.162,0.086 -0.264,0.25601 -0.264,0.44001l0,2.50009l-1,0l0,1.00004l1,0l0,8.00029l-1,0l0,1.00004l1,0l0,2.50009c0,0.18501 0.102,0.35401 0.264,0.44102c0.074,0.04 0.155,0.059 0.236,0.059c0.097,0 0.193,-0.028 0.277,-0.084l3,-2.00008c0.139,-0.092 0.223,-0.24901 0.223,-0.41601l0,-11.0004c0,-0.16701 -0.084,-0.32302 -0.223,-0.41602l0,0zm-6.777,1.91607l1,0l0,-1.00004l-1,0l0,1.00004zm-2,0l1,0l0,-1.00004l-1,0l0,1.00004zm2,9.00033l1,0l0,-1.00004l-1,0l0,1.00004zm-2,0l1,0l0,-1.00004l-1,0l0,1.00004zm2.18,-2.11508l-3,-2.50009c-0.115,-0.096 -0.18,-0.23601 -0.18,-0.38501c0,-0.14801 0.065,-0.28901 0.18,-0.38402l3,-2.50009l0.64,0.76903l-2.539,2.11508l2.539,2.11607l-0.64,0.76903z"/>
    </g>
   </g>
  </g>
  <!-- Generator: Sketch 64 (93537) - https://sketch.com -->
  <desc transform="matrix(14.0625,0,0,14.0625,0,0) ">Created with Sketch.</desc>
  <defs>
   <linearGradient id="svg_57" y2="0%" x2="100%" y1="100%" x1="0%">
    <stop offset="0%" stop-color="#C8511B"/>
    <stop offset="100%" stop-color="#FF9900"/>
   </linearGradient>
  </defs>
  <g stroke="null" id="svg_60">
   <g stroke="null" transform="matrix(2.062499994710537,0,0,2.062499994710537,243.00549508521357,191.88247599338132) " fill-rule="evenodd" fill="none" id="svg_54">
    <g stroke="null" fill="url(#svg_57)" id="svg_56">
     <rect stroke="null" height="24" width="24" y="-15.41533" x="31.26021" id="svg_58"/>
    </g>
    <path stroke="null" fill="#FFFFFF" id="svg_55" d="m39.61493,3.58467l-3.02095,0l3.54301,-7.194l1.51253,3.026l-2.03459,4.168zm0.98222,-8.565c-0.08667,-0.173 -0.26723,-0.282 -0.46429,-0.282l-0.00206,0c-0.19706,0 -0.37762,0.111 -0.46325,0.284l-4.35705,8.848c-0.07635,0.154 -0.065,0.337 0.02888,0.482c0.09492,0.145 0.25897,0.233 0.43643,0.233l4.16515,0c0.20016,0 0.38174,-0.111 0.46738,-0.286l2.28015,-4.671c0.06603,-0.136 0.065,-0.295 -0.00206,-0.432l-2.08928,-4.176zm9.63132,8.565l-3.16952,0l-5.62403,-11.711c-0.0846,-0.176 -0.26722,-0.289 -0.46738,-0.289l-2.09134,0l0.00206,-2l4.17031,0l5.59823,11.71c0.08461,0.177 0.26826,0.29 0.46842,0.29l1.11325,0l0,2zm0.51587,-3l-1.3,0l-5.5972,-11.71c-0.08461,-0.177 -0.26826,-0.29 -0.46945,-0.29l-5.01427,0c-0.28476,0 -0.51587,0.224 -0.51587,0.5l-0.00309,3c0,0.132 0.05468,0.259 0.15166,0.354c0.09595,0.093 0.22699,0.146 0.36421,0.146l2.27809,0l5.62403,11.711c0.0846,0.176 0.26722,0.289 0.46738,0.289l4.01451,0c0.28476,0 0.51587,-0.224 0.51587,-0.5l0,-3c0,-0.276 -0.23111,-0.5 -0.51587,-0.5l0,0z"/>
   </g>
  </g>
  <!-- Generator: Sketch 64 (93537) - https://sketch.com -->
  <desc transform="matrix(14.0625,0,0,14.0625,0,0) ">Created with Sketch.</desc>
  <defs>
   <linearGradient id="svg_71" y2="0%" x2="100%" y1="100%" x1="0%">
    <stop offset="0%" stop-color="#2E27AD"/>
    <stop offset="100%" stop-color="#527FFF"/>
   </linearGradient>
  </defs>
  <g stroke="null" id="svg_74">
   <g stroke="null" transform="matrix(2.1041663438587745,0,0,2.1041663438587745,244.34894202642352,289.37375171560853) " fill-rule="evenodd" fill="none" id="svg_68">
    <g stroke="null" fill="url(#svg_71)" id="svg_70">
     <rect stroke="null" height="24" width="24" y="-61.44257" x="121.20222" id="svg_72"/>
    </g>
    <path stroke="null" fill="#FFFFFF" id="svg_69" d="m135.58942,-48.37914l1.0347,-3.44604c0.04657,-0.15264 0.01721,-0.31843 -0.07796,-0.44681c-0.09517,-0.12838 -0.24602,-0.20318 -0.40598,-0.20318l-0.69959,0l1.01243,-2.02173l2.52903,0l-0.79171,2.36745c-0.05063,0.15365 -0.02531,0.32347 0.07087,0.45489c0.09415,0.13242 0.24703,0.21026 0.41003,0.21026l0.62669,0l-3.70851,3.08516zm5.58251,-3.76346c-0.0729,-0.19914 -0.26222,-0.33257 -0.47584,-0.33257l-1.32324,0l0.79171,-2.36745c0.05062,-0.15365 0.02531,-0.32348 -0.07087,-0.4559c-0.09516,-0.13141 -0.24703,-0.20925 -0.41003,-0.20925l-3.54348,0c-0.19236,0 -0.3665,0.10816 -0.45256,0.279l-1.51863,3.0326c-0.07796,0.15668 -0.07087,0.34268 0.02126,0.49128c0.09314,0.14961 0.25614,0.24059 0.43129,0.24059l0.83829,0l-1.32324,4.40333c-0.06378,0.21431 0.01924,0.44377 0.20653,0.5671c0.08505,0.0556 0.18123,0.0839 0.27842,0.0839c0.11542,0 0.22982,-0.03942 0.32398,-0.11726l6.07454,-5.05433c0.163,-0.13647 0.22476,-0.35987 0.15187,-0.56104l0,0zm-5.13502,8.32854c0,0.46196 -1.55711,1.36062 -4.41113,1.36062c-2.85403,0 -4.41114,-0.89866 -4.41114,-1.36062l0,-1.06647c1.03673,0.61663 2.73051,0.93303 4.41114,0.93303c1.68062,0 3.37441,-0.3164 4.41113,-0.93303l0,1.06647zm0,-2.50493c0,0.46196 -1.55711,1.36063 -4.41113,1.36063c-2.85403,0 -4.41114,-0.89867 -4.41114,-1.36063c0,-0.09603 0.07391,-0.21026 0.19945,-0.32853c1.00028,0.5216 2.53511,0.82891 4.21169,0.82891c0.02025,0 1.57128,-0.03235 1.57128,-0.03235l0,-1.01087c-0.02025,0 -1.57128,0.03235 -1.57128,0.03235c-1.65228,0 -3.17699,-0.32449 -3.97782,-0.84508c-0.27032,-0.17792 -0.4323,-0.36998 -0.43332,-0.51555l0,-1.06646c1.03673,0.61663 2.73051,0.93404 4.41114,0.93404c0.26626,0 1.41132,-0.08087 1.7687,-0.10614l0.02126,-0.50847l-0.09314,-0.50038c-0.34422,0.02427 -1.44169,0.10412 -1.69682,0.10412c-2.85403,0 -4.41114,-0.89967 -4.41114,-1.36163c0,-0.10008 0.07897,-0.21936 0.21261,-0.34168c0.79374,0.35077 2.3468,0.74501 6.09277,0.7905l0.01215,-1.01087c-3.05043,-0.03639 -4.98619,-0.30326 -5.88421,-0.79454c-0.27032,-0.17791 -0.4323,-0.36997 -0.43332,-0.51554l0,-1.06545c1.03673,0.61663 2.73051,0.93303 4.41114,0.93303c0.07795,0 2.05724,-0.03639 2.1352,-0.03943l-0.04353,-1.00985c-0.10732,0.00404 -1.99651,0.03841 -2.09167,0.03841c-2.85403,0 -4.41114,-0.89866 -4.41114,-1.36063c0,-0.46196 1.55711,-1.36062 4.41114,-1.36062c1.32121,0 2.57662,0.20722 3.44325,0.57013l0.39181,-0.93303c-1.00129,-0.41749 -2.363,-0.64797 -3.83506,-0.64797c-2.69406,0 -5.42255,0.81375 -5.42356,2.36947l0,2.51201c0,0 0.09213,0.57922 0.40092,0.92595c-0.31284,0.34774 -0.40092,0.68638 -0.40092,0.9391l0,2.51604c0.00101,0.24766 0.09213,0.58125 0.39788,0.92495c-0.3098,0.34672 -0.39788,0.68435 -0.39788,0.93606l0,2.50998c0.00506,1.5537 2.73152,2.36644 5.42356,2.36644c2.69507,0 5.42355,-0.81375 5.42355,-2.36947l0,-2.50695l-1.01242,0z"/>
   </g>
  </g>
  <!-- Generator: Sketch 64 (93537) - https://sketch.com -->
  <desc transform="matrix(14.0625,0,0,14.0625,0,0) ">Created with Sketch.</desc>
  <defs>
   <linearGradient id="svg_85" y2="0%" x2="100%" y1="100%" x1="0%">
    <stop offset="0%" stop-color="#BD0816"/>
    <stop offset="100%" stop-color="#FF5252"/>
   </linearGradient>
  </defs>
  <g stroke="null" id="svg_88">
   <g stroke="null" transform="matrix(2.137415873628014,0,0,2.137415873628014,329.3184934520996,203.44627313350944) " fill-rule="evenodd" fill="none" id="svg_82">
    <g stroke="null" fill="url(#svg_85)" id="svg_84">
     <rect stroke="null" height="24" width="24" y="42.568" x="-71.07713" id="svg_86"/>
    </g>
    <path stroke="null" fill="#FFFFFF" id="svg_83" d="m-55.88913,59.459l-1.25,-1l0.625,-0.781l0.824,0.659l1.697,-2.546l0.833,0.555l-2,3c-0.079,0.116 -0.202,0.195 -0.339,0.217c-0.027,0.003 -0.052,0.005 -0.078,0.005c-0.112,0 -0.222,-0.038 -0.312,-0.109l0,0zm-9.188,-4.891l2,0l0,-1l-2,0l0,1zm0.001,-2l3,0l0,-1l-3,0l0,1zm12,-3l0,-0.5c0,-0.276 -0.224,-0.5 -0.5,-0.5l-7,0c-0.277,0 -0.5,0.224 -0.5,0.5l0,0.5l-5.001,0l0,-1.4c0,-0.319 0.198,-0.6 0.422,-0.6l13.156,0c0.225,0 0.423,0.281 0.423,0.6l0,1.4l-1,0zm-2.376,5c1.862,0 3.376,1.571 3.376,3.5c0,1.93 -1.514,3.5 -3.376,3.5c-1.861,0 -3.375,-1.57 -3.375,-3.5c0,-1.929 1.514,-3.5 3.375,-3.5l0,0zm4.375,0l0,-6.4c0,-0.882 -0.638,-1.6 -1.422,-1.6l-13.156,0c-0.784,0 -1.422,0.718 -1.422,1.6l0,8.8c0,0.883 0.638,1.6 1.422,1.6l5.877,0c0.246,2.244 2.08,4 4.326,4c2.413,0 4.375,-2.018 4.375,-4.5c0,-2.481 -1.962,-4.5 -4.375,-4.5c-2.246,0 -4.08,1.757 -4.326,4l-5.877,0c-0.224,0 -0.422,-0.28 -0.422,-0.6l0,-6.4l5.001,0l0,4l1,0l0,-4l0,-1l5.999,0l0,1l0,2l1.001,0l0,-2l1,0l0,4l0.999,0z"/>
   </g>
  </g>
  <text xml:space="preserve" text-anchor="start" font-family="sans-serif" font-size="18" id="svg_89" y="76.5" x="708.5" opacity="undefined" fill-opacity="null" stroke-opacity="null" stroke-dasharray="null" stroke-width="0" stroke="#42affa" fill="#000000">ABABAmbdmsb</text>
  <g stroke="null" id="svg_94">
   <path stroke="null" id="svg_93" d="m63.42683,170.64912l-52.16675,0c-2.88004,0 -5.21668,2.33664 -5.21668,5.21668l0,34.77783c0,2.88004 2.33664,5.21668 5.21668,5.21668l20.8667,0l-1.73889,5.21668l-7.82501,0c-1.44545,0 -2.60834,1.16288 -2.60834,2.60834s1.16288,2.60834 2.60834,2.60834l29.56116,0c1.44545,0 2.60834,-1.16288 2.60834,-2.60834s-1.16288,-2.60834 -2.60834,-2.60834l-7.82501,0l-1.73889,-5.21668l20.8667,0c2.88004,0 5.21668,-2.33664 5.21668,-5.21668l0,-34.77783c0,-2.88004 -2.33664,-5.21668 -5.21668,-5.21668zm-1.73889,38.25562l-48.68897,0l0,-31.30005l48.68897,0l0,31.30005z" fill="#42affa"/>
  </g>
  <g stroke="null" id="svg_14">
   <g stroke="null" fill-rule="evenodd" fill="none" id="svg_8">
    <g stroke="null" fill="url(#svg_11)" id="svg_10">
     <rect stroke="null" height="49" width="49" y="27.77523" x="178.54609" id="svg_12"/>
    </g>
    <path stroke="null" fill="#FFFFFF" id="svg_9" d="m211.21275,59.41713c0,-0.56372 -0.45938,-1.02126 -1.02083,-1.02126c-0.56146,0 -1.02083,0.45754 -1.02083,1.02126c0,0.56375 0.45938,1.02128 1.02083,1.02128c0.56146,0 1.02083,-0.45754 1.02083,-1.02128m2.04167,0c0,1.68919 -1.37404,3.06383 -3.0625,3.06383c-1.68846,0 -3.0625,-1.37463 -3.0625,-3.06383c0,-1.68917 1.37404,-3.06381 3.0625,-3.06381c1.68846,0 3.0625,1.37463 3.0625,3.06381m-16.33333,-8.17016c0,-0.56375 -0.45938,-1.02126 -1.02083,-1.02126c-0.56146,0 -1.02083,0.45752 -1.02083,1.02126c0,0.56375 0.45938,1.02128 1.02083,1.02128c0.56146,0 1.02083,-0.45754 1.02083,-1.02128m2.04167,0c0,1.68919 -1.37404,3.06381 -3.0625,3.06381c-1.68846,0 -3.0625,-1.37461 -3.0625,-3.06381c0,-1.68917 1.37404,-3.06381 3.0625,-3.06381c1.68846,0 3.0625,1.37463 3.0625,3.06381m4.08333,-8.17016c0,0.56375 0.45938,1.02126 1.02083,1.02126c0.56146,0 1.02083,-0.45752 1.02083,-1.02126c0,-0.56375 -0.45938,-1.02126 -1.02083,-1.02126c-0.56146,0 -1.02083,0.45752 -1.02083,1.02126m-2.04167,0c0,-1.68917 1.37404,-3.06381 3.0625,-3.06381c1.68846,0 3.0625,1.37463 3.0625,3.06381c0,1.68917 -1.37404,3.06381 -3.0625,3.06381c-1.68846,0 -3.0625,-1.37463 -3.0625,-3.06381m16.33333,9.19144c0,-4.60798 -2.23971,-8.89528 -5.91879,-11.56488c-0.37567,-0.1205 -1.41692,0.18587 -3.13396,0.92324c-0.30829,0.13071 -0.56963,0.24102 -0.75338,0.30841l-0.69417,-1.92203c0.15925,-0.05515 0.38179,-0.15321 0.64517,-0.26554c0.45121,-0.192 0.89425,-0.37583 1.32708,-0.53922c-1.80483,-0.79864 -3.76483,-1.23778 -5.76363,-1.23778c-1.40263,0 -2.77258,0.20017 -4.07925,0.59437c-0.09392,0.02656 -0.17763,0.07354 -0.2695,0.10212c0.71458,0.26758 1.56596,0.61277 2.57658,1.06622l-0.833,1.8628c-2.46225,-1.10501 -3.871,-1.51557 -4.52638,-1.66876c-3.70563,2.14875 -6.28425,5.87026 -6.94779,10.16164c0.65742,-0.08579 1.32096,-0.13685 2.02738,-0.15523l0.05104,2.04252c-0.81054,0.02044 -1.54963,0.10623 -2.28871,0.22673c0,0.02044 -0.00204,0.0429 -0.00204,0.06537c0,4.69783 2.29688,9.02598 6.076,11.68127c-0.41038,-1.43182 -0.7595,-3.14551 -0.7595,-4.8735c0,-0.31862 -0.01021,-0.65566 -0.02042,-0.99676c-0.03267,-0.97428 -0.06533,-1.98125 0.11433,-2.89835l2.00288,0.39421c-0.13679,0.68833 -0.10617,1.57684 -0.07758,2.43675c0.01225,0.36562 0.02246,0.72306 0.02246,1.06416c0,1.83421 0.50838,4.13207 1.37404,6.35434c2.50513,1.05395 5.27158,1.3583 7.91554,0.91916c0.22867,-0.42077 0.50633,-0.84766 0.80033,-1.28068c0.43692,-0.64545 0.88813,-1.31132 1.06371,-1.9159l1.96204,0.56987c-0.18375,0.63727 -0.51858,1.21326 -0.87179,1.77088c1.22092,-0.48818 2.38263,-1.10297 3.42592,-1.91386c3.53208,-2.73293 5.55538,-6.85682 5.55538,-11.31159m2.04167,0c0,5.09204 -2.31321,9.80419 -6.3455,12.92518c-1.42713,1.10707 -3.0135,1.96086 -4.71625,2.53481c-1.67825,0.58212 -3.4545,0.88033 -5.27158,0.88033c-2.68275,0 -5.34713,-0.66995 -7.70729,-1.9343c-5.32058,-2.84933 -8.62604,-8.36828 -8.62604,-14.40602c0,-0.33704 0.00817,-0.67201 0.03675,-1.00085c0.39608,-6.80371 5.0715,-12.70666 11.63138,-14.65933c4.11192,-1.23982 8.85471,-0.73735 12.64813,1.40936c5.15113,2.8861 8.35042,8.34582 8.35042,14.25081m-18.22188,-6.25017l-1.33933,-1.53805c-1.0535,0.91508 -1.33525,1.38484 -1.80688,2.16102c-0.13679,0.22671 -0.29604,0.49225 -0.50838,0.81701l1.71092,1.11318c0.22458,-0.34723 0.39608,-0.6291 0.54513,-0.87216c0.4165,-0.68835 0.588,-0.97226 1.39854,-1.68101m-0.86975,4.96337l-0.6615,1.93019c2.27238,0.78229 4.25892,2.03234 6.25158,3.93188l1.40671,-1.4788c-2.21113,-2.10994 -4.4345,-3.50295 -6.99679,-4.38327m5.38183,-4.67946l1.70683,-1.12137c1.96408,2.99641 3.06863,6.28695 3.28504,9.78173l-2.03758,0.12664c-0.19192,-3.13531 -1.18825,-6.09291 -2.95429,-8.78701"/>
   </g>
  </g>
  <g stroke="null" id="svg_29">
   <g stroke="null" transform="matrix(2.0625000140069596,0,0,2.0625000140069596,228.29038436012684,181.12839336298913) " fill-rule="evenodd" fill="none" id="svg_22">
    <g stroke="null" fill="url(#svg_26)" id="svg_25">
     <rect stroke="null" x="38.3948" id="svg_28" height="24" width="24" y="-74.35305"/>
    </g>
    <g stroke="null" fill="#FFFFFF" id="svg_23">
     <path stroke="null" id="svg_24" d="m56.303,-61.30225l0.041,-0.244c0.266,0.153 0.47,0.282 0.615,0.385c-0.17,-0.028 -0.398,-0.078 -0.656,-0.141l0,0zm-1.859,5.042c-0.05,0.303 -1.07,0.907 -4.571,0.907c-3.434,0 -4.435,-0.603 -4.485,-0.91l-1.734,-10.125c1.437,0.703 3.893,1.035 6.241,1.035c2.35,0 4.811,-0.334 6.248,-1.038l-0.808,4.813c-1.555,-0.508 -3.372,-1.377 -4.296,-1.82l-0.17,-0.082c-0.065,-0.489 -0.467,-0.873 -0.974,-0.873c-0.552,0 -1,0.449 -1,1c0,0.551 0.448,1 1,1c0.221,0 0.414,-0.086 0.579,-0.207l0.134,0.064c0.971,0.466 2.906,1.39 4.56,1.913l-0.724,4.323zm-4.549,-13.093c4.261,0 6.471,1.037 6.5,1.49l0,0.029c-0.054,0.458 -2.265,1.481 -6.5,1.481c-4.23,0 -6.441,-1.02 -6.5,-1.479l0,-0.032c0.03,-0.454 2.242,-1.489 6.5,-1.489l0,0zm7.5,1.5c0,-1.718 -3.888,-2.5 -7.5,-2.5c-3.613,0 -7.5,0.782 -7.5,2.5l0.047,0.316l1.96,11.439c0.19,1.17 1.929,1.745 5.471,1.745c4.729,0 5.436,-1.009 5.557,-1.743l0.707,-4.214c0.578,0.14 0.989,0.196 1.281,0.196c0.462,0 0.638,-0.135 0.76,-0.279c0.146,-0.174 0.202,-0.393 0.159,-0.617c-0.093,-0.475 -0.612,-0.927 -1.817,-1.583l0.829,-4.946l0.046,-0.314z"/>
    </g>
   </g>
  </g>
  <text xml:space="preserve" text-anchor="start" font-family="sans-serif" font-size="16" id="svg_97" y="96.02525" x="163.46796" opacity="undefined" stroke-opacity="null" stroke-dasharray="null" stroke-width="0" stroke="#42affa" fill="#ffffff">CloudFront</text>
  <text xml:space="preserve" text-anchor="start" font-family="sans-serif" font-size="16" id="svg_98" y="96.02525" x="322.44065" opacity="undefined" stroke-opacity="null" stroke-dasharray="null" stroke-width="0" stroke="#42affa" fill="#ffffff">S3</text>
  <text xml:space="preserve" text-anchor="start" font-family="sans-serif" font-size="16" id="svg_99" y="229.33838" x="156.35859" opacity="undefined" stroke-opacity="null" stroke-dasharray="null" stroke-width="0" stroke="#42affa" fill="#ffffff">API Gateway</text>
  <text xml:space="preserve" text-anchor="start" font-family="sans-serif" font-size="16" id="svg_100" y="229.33838" x="303.31562" opacity="undefined" stroke-opacity="null" stroke-dasharray="null" stroke-width="0" stroke="#42affa" fill="#ffffff">Lambda</text>
  <text xml:space="preserve" text-anchor="start" font-family="sans-serif" font-size="16" id="svg_101" y="230.34849" x="483.72501" opacity="undefined" stroke-opacity="null" stroke-dasharray="null" stroke-width="0" stroke="#42affa" fill="#ffffff">DynamoDB</text>
  <text xml:space="preserve" text-anchor="start" font-family="sans-serif" font-size="16" id="svg_102" y="365.70202" x="175.46849" opacity="undefined" stroke-opacity="null" stroke-dasharray="null" stroke-width="0" stroke="#42affa" fill="#ffffff">Cognito</text>
  <rect stroke="#42affa" id="svg_103" height="105" width="234.93937" y="142.5707" x="149.40908" opacity="undefined" fill-opacity="null" stroke-dasharray="null" stroke-width="3" fill="none"/>
  <rect stroke="#42affa" id="svg_104" height="105" width="234.93937" y="275.90403" x="149.40908" opacity="undefined" fill-opacity="null" stroke-dasharray="null" stroke-width="3" fill="none"/>
  <rect stroke="#42affa" id="svg_105" height="105" width="113.72726" y="142.57069" x="465.57068" opacity="undefined" fill-opacity="null" stroke-dasharray="null" stroke-width="3" fill="none"/>
  <line stroke-linecap="null" stroke-linejoin="null" id="svg_109" y2="196.21213" x2="136.46464" y1="196.21213" x1="80.80807" opacity="undefined" fill-opacity="null" stroke-opacity="null" stroke-dasharray="null" stroke-width="3" stroke="#42affa" fill="none"/>
  <line stroke-linecap="null" stroke-linejoin="null" id="svg_110" y2="196.21213" x2="136.46464" y1="196.21213" x1="80.80807" opacity="undefined" fill-opacity="null" stroke-opacity="null" stroke-dasharray="null" stroke-width="3" stroke="#42affa" fill="none"/>
  <line stroke-linecap="null" stroke-linejoin="null" id="svg_111" y2="58.83839" x2="136.46464" y1="58.83839" x1="50.85859" opacity="undefined" fill-opacity="null" stroke-opacity="null" stroke-dasharray="null" stroke-width="3" stroke="#42affa" fill="none"/>
  <line stroke-linecap="null" stroke-linejoin="null" id="svg_112" y2="58.83839" x2="136.46464" y1="58.83839" x1="50.85859" opacity="undefined" fill-opacity="null" stroke-opacity="null" stroke-dasharray="null" stroke-width="3" stroke="#42affa" fill="none"/>
  <line stroke-linecap="null" stroke-linejoin="null" id="svg_113" y2="326.26262" x2="136.46464" y1="326.26262" x1="50.85859" opacity="undefined" fill-opacity="null" stroke-opacity="null" stroke-dasharray="null" stroke-width="3" stroke="#42affa" fill="none"/>
  <line stroke-linecap="null" stroke-linejoin="null" id="svg_114" y2="326.26262" x2="136.46464" y1="326.26262" x1="50.85859" opacity="undefined" fill-opacity="null" stroke-opacity="null" stroke-dasharray="null" stroke-width="3" stroke="#42affa" fill="none"/>
  <line stroke-linecap="null" stroke-linejoin="null" id="svg_117" y2="58.83839" x2="136.46464" y1="58.83839" x1="50.85859" opacity="undefined" fill-opacity="null" stroke-opacity="null" stroke-dasharray="null" stroke-width="3" stroke="#42affa" fill="none"/>
  <line stroke-linecap="null" stroke-linejoin="null" id="svg_118" y2="160.60607" x2="50.85859" y1="57.87879" x1="50.85859" opacity="undefined" fill-opacity="null" stroke-opacity="null" stroke-dasharray="null" stroke-width="3" stroke="#42affa" fill="none"/>
  <line stroke-linecap="null" stroke-linejoin="null" id="svg_119" y2="327.27273" x2="50.85859" y1="237.87879" x1="50.85859" opacity="undefined" fill-opacity="null" stroke-opacity="null" stroke-dasharray="null" stroke-width="3" stroke="#42affa" fill="none"/>
  <line stroke-linecap="null" stroke-linejoin="null" id="svg_122" y2="196.21213" x2="136.46464" y1="196.21213" x1="80.80807" opacity="undefined" fill-opacity="null" stroke-opacity="null" stroke-dasharray="null" stroke-width="3" stroke="#42affa" fill="none"/>
  <line stroke-linecap="null" stroke-linejoin="null" id="svg_123" y2="195.87879" x2="452.62627" y1="195.87879" x1="396.9697" opacity="undefined" fill-opacity="null" stroke-opacity="null" stroke-dasharray="null" stroke-width="3" stroke="#42affa" fill="none"/>
 </g>
</svg>