<svg width="440" height="115" xmlns="http://www.w3.org/2000/svg">
 <!-- Created with Method Draw - http://github.com/duopixel/Method-Draw/ -->
 <g id="Layer_1">
  <title>Layer 1</title>
  <!-- Generator: Sketch 64 (93537) - https://sketch.com -->
  <desc>Created with Sketch.</desc>
  <defs>
   <linearGradient x1="0%" y1="100%" x2="100%" y2="0%" id="svg_43">
    <stop stop-color="#B0084D" offset="0%"/>
    <stop stop-color="#FF4F8B" offset="100%"/>
   </linearGradient>
   <linearGradient x1="0%" y1="100%" x2="100%" y2="0%" id="svg_57">
    <stop stop-color="#C8511B" offset="0%"/>
    <stop stop-color="#FF9900" offset="100%"/>
   </linearGradient>
   <linearGradient x1="0%" y1="100%" x2="100%" y2="0%" id="svg_71">
    <stop stop-color="#2E27AD" offset="0%"/>
    <stop stop-color="#527FFF" offset="100%"/>
   </linearGradient>
  </defs>


  <g id="svg_46" stroke="null">
   <g id="svg_39" fill="none" fill-rule="evenodd" transform="matrix(2.0625 0 0 2.0625 229.887 275.166)" stroke="null">
    <g id="svg_42" fill="url(#svg_43)" stroke="null">
     <rect x="-94.83173" y="-122.21959" width="24" height="24" id="svg_45" stroke="null"/>
    </g>
    <g id="svg_40" fill="#FFFFFF" stroke="null">
     <path d="m-88.83173,-115.45207l2,-1.33305l0,13.13148l-2,-1.33305l0,-10.46538zm-1,-0.26801l0,11.0004c0,0.167 0.084,0.32401 0.223,0.41601l3,2.00008c0.084,0.056 0.18,0.084 0.277,0.084c0.081,0 0.162,-0.019 0.236,-0.059c0.162,-0.08701 0.264,-0.25601 0.264,-0.44102l0,-2.50009l1,0l0,-1.00004l-1,0l0,-8.00029l1,0l0,-1.00004l-1,0l0,-2.50009c0,-0.184 -0.102,-0.35401 -0.264,-0.44001c-0.162,-0.08701 -0.359,-0.07801 -0.513,0.024l-3,2.00007c-0.139,0.093 -0.223,0.24901 -0.223,0.41602l0,0zm14,10.73339l-2,1.33305l0,-13.13148l2,1.33305l0,10.46538zm0.777,-11.14941l-3,-2.00007c-0.154,-0.10201 -0.351,-0.11101 -0.513,-0.024c-0.162,0.086 -0.264,0.25601 -0.264,0.44001l0,2.50009l-1,0l0,1.00004l1,0l0,8.00029l-1,0l0,1.00004l1,0l0,2.50009c0,0.18501 0.102,0.35401 0.264,0.44102c0.074,0.04 0.155,0.059 0.236,0.059c0.097,0 0.193,-0.028 0.277,-0.084l3,-2.00008c0.139,-0.092 0.223,-0.24901 0.223,-0.41601l0,-11.0004c0,-0.16701 -0.084,-0.32302 -0.223,-0.41602l0,0zm-6.777,1.91607l1,0l0,-1.00004l-1,0l0,1.00004zm-2,0l1,0l0,-1.00004l-1,0l0,1.00004zm2,9.00033l1,0l0,-1.00004l-1,0l0,1.00004zm-2,0l1,0l0,-1.00004l-1,0l0,1.00004zm2.18,-2.11508l-3,-2.50009c-0.115,-0.096 -0.18,-0.23601 -0.18,-0.38501c0,-0.14801 0.065,-0.28901 0.18,-0.38402l3,-2.50009l0.64,0.76903l-2.539,2.11508l2.539,2.11607l-0.64,0.76903z" id="svg_41" stroke="null"/>
    </g>
   </g>
  </g>
  <!-- Generator: Sketch 64 (93537) - https://sketch.com -->
  <desc>Created with Sketch.</desc>

  <g id="svg_60" stroke="null">
   <g id="svg_54" fill="none" fill-rule="evenodd" transform="matrix(2.0625 0 0 2.0625 243.005 191.882)" stroke="null">
    <g id="svg_56" fill="url(#svg_57)" stroke="null">
     <rect id="svg_58" x="-38.55797" y="-81.83957" width="24" height="24" stroke="null"/>
    </g>
    <path d="m-30.20325,-62.83957l-3.02095,0l3.54301,-7.194l1.51253,3.026l-2.03459,4.168zm0.98222,-8.565c-0.08667,-0.173 -0.26723,-0.282 -0.46429,-0.282l-0.00206,0c-0.19706,0 -0.37762,0.111 -0.46325,0.284l-4.35705,8.848c-0.07635,0.154 -0.065,0.337 0.02888,0.482c0.09492,0.145 0.25897,0.233 0.43643,0.233l4.16515,0c0.20016,0 0.38174,-0.111 0.46738,-0.286l2.28015,-4.671c0.06603,-0.136 0.065,-0.295 -0.00206,-0.432l-2.08928,-4.176zm9.63132,8.565l-3.16952,0l-5.62403,-11.711c-0.0846,-0.176 -0.26722,-0.289 -0.46738,-0.289l-2.09134,0l0.00206,-2l4.17031,0l5.59823,11.71c0.08461,0.177 0.26826,0.29 0.46842,0.29l1.11325,0l0,2zm0.51587,-3l-1.3,0l-5.5972,-11.71c-0.08461,-0.177 -0.26826,-0.29 -0.46945,-0.29l-5.01427,0c-0.28476,0 -0.51587,0.224 -0.51587,0.5l-0.00309,3c0,0.132 0.05468,0.259 0.15166,0.354c0.09595,0.093 0.22699,0.146 0.36421,0.146l2.27809,0l5.62403,11.711c0.0846,0.176 0.26722,0.289 0.46738,0.289l4.01451,0c0.28476,0 0.51587,-0.224 0.51587,-0.5l0,-3c0,-0.276 -0.23111,-0.5 -0.51587,-0.5l0,0z" id="svg_55" fill="#FFFFFF" stroke="null"/>
   </g>
  </g>
  <!-- Generator: Sketch 64 (93537) - https://sketch.com -->
  <desc>Created with Sketch.</desc>

  <g id="svg_74" stroke="null">
   <g id="svg_68" fill="none" fill-rule="evenodd" transform="matrix(2.10417 0 0 2.10417 244.349 289.374)" stroke="null">
    <g id="svg_70" fill="url(#svg_71)" stroke="null">
     <rect id="svg_72" x="52.76657" y="-126.55149" width="24" height="24" stroke="null"/>
    </g>
    <path d="m67.15377,-113.48806l1.0347,-3.44604c0.04657,-0.15264 0.01721,-0.31843 -0.07796,-0.44681c-0.09517,-0.12838 -0.24602,-0.20318 -0.40598,-0.20318l-0.69959,0l1.01243,-2.02173l2.52903,0l-0.79171,2.36745c-0.05063,0.15365 -0.02531,0.32347 0.07087,0.45489c0.09415,0.13242 0.24703,0.21026 0.41003,0.21026l0.62669,0l-3.70851,3.08516zm5.58251,-3.76346c-0.0729,-0.19914 -0.26222,-0.33257 -0.47584,-0.33257l-1.32324,0l0.79171,-2.36745c0.05062,-0.15365 0.02531,-0.32348 -0.07087,-0.4559c-0.09516,-0.13141 -0.24703,-0.20925 -0.41003,-0.20925l-3.54348,0c-0.19236,0 -0.3665,0.10816 -0.45256,0.279l-1.51863,3.0326c-0.07796,0.15668 -0.07087,0.34268 0.02126,0.49128c0.09314,0.14961 0.25614,0.24059 0.43129,0.24059l0.83829,0l-1.32324,4.40333c-0.06378,0.21431 0.01924,0.44377 0.20653,0.5671c0.08505,0.0556 0.18123,0.0839 0.27842,0.0839c0.11542,0 0.22982,-0.03942 0.32398,-0.11726l6.07454,-5.05433c0.163,-0.13647 0.22476,-0.35987 0.15187,-0.56104l0,0zm-5.13502,8.32854c0,0.46196 -1.55711,1.36062 -4.41113,1.36062c-2.85403,0 -4.41114,-0.89866 -4.41114,-1.36062l0,-1.06647c1.03673,0.61663 2.73051,0.93303 4.41114,0.93303c1.68062,0 3.37441,-0.3164 4.41113,-0.93303l0,1.06647zm0,-2.50493c0,0.46196 -1.55711,1.36063 -4.41113,1.36063c-2.85403,0 -4.41114,-0.89867 -4.41114,-1.36063c0,-0.09603 0.07391,-0.21026 0.19945,-0.32853c1.00028,0.5216 2.53511,0.82891 4.21169,0.82891c0.02025,0 1.57128,-0.03235 1.57128,-0.03235l0,-1.01087c-0.02025,0 -1.57128,0.03235 -1.57128,0.03235c-1.65228,0 -3.17699,-0.32449 -3.97782,-0.84508c-0.27032,-0.17792 -0.4323,-0.36998 -0.43332,-0.51555l0,-1.06646c1.03673,0.61663 2.73051,0.93404 4.41114,0.93404c0.26626,0 1.41132,-0.08087 1.7687,-0.10614l0.02126,-0.50847l-0.09314,-0.50038c-0.34422,0.02427 -1.44169,0.10412 -1.69682,0.10412c-2.85403,0 -4.41114,-0.89967 -4.41114,-1.36163c0,-0.10008 0.07897,-0.21936 0.21261,-0.34168c0.79374,0.35077 2.3468,0.74501 6.09277,0.7905l0.01215,-1.01087c-3.05043,-0.03639 -4.98619,-0.30326 -5.88421,-0.79454c-0.27032,-0.17791 -0.4323,-0.36997 -0.43332,-0.51554l0,-1.06545c1.03673,0.61663 2.73051,0.93303 4.41114,0.93303c0.07795,0 2.05724,-0.03639 2.1352,-0.03943l-0.04353,-1.00985c-0.10732,0.00404 -1.99651,0.03841 -2.09167,0.03841c-2.85403,0 -4.41114,-0.89866 -4.41114,-1.36063c0,-0.46196 1.55711,-1.36062 4.41114,-1.36062c1.32121,0 2.57662,0.20722 3.44325,0.57013l0.39181,-0.93303c-1.00129,-0.41749 -2.363,-0.64797 -3.83506,-0.64797c-2.69406,0 -5.42255,0.81375 -5.42356,2.36947l0,2.51201c0,0 0.09213,0.57922 0.40092,0.92595c-0.31284,0.34774 -0.40092,0.68638 -0.40092,0.9391l0,2.51604c0.00101,0.24766 0.09213,0.58125 0.39788,0.92495c-0.3098,0.34672 -0.39788,0.68435 -0.39788,0.93606l0,2.50998c0.00506,1.5537 2.73152,2.36644 5.42356,2.36644c2.69507,0 5.42355,-0.81375 5.42355,-2.36947l0,-2.50695l-1.01242,0z" id="svg_69" fill="#FFFFFF" stroke="null"/>
   </g>
  </g>
  <!-- Generator: Sketch 64 (93537) - https://sketch.com -->
  <desc>Created with Sketch.</desc>

  <text fill="#000000" stroke="#42affa" stroke-width="0" stroke-dasharray="null" stroke-opacity="null" fill-opacity="null" opacity="undefined" x="708.5" y="76.5" id="svg_89" font-size="18" font-family="sans-serif" text-anchor="start" xml:space="preserve">ABABAmbdmsb</text>
  <text fill="#ffffff" stroke="#42affa" stroke-width="0" stroke-dasharray="null" stroke-opacity="null" opacity="undefined" x="12.35859" y="92.33838" id="svg_99" font-size="16" font-family="sans-serif" text-anchor="start" xml:space="preserve">API Gateway</text>
  <text fill="#ffffff" stroke="#42affa" stroke-width="0" stroke-dasharray="null" stroke-opacity="null" opacity="undefined" x="159.31562" y="92.33838" id="svg_100" font-size="16" font-family="sans-serif" text-anchor="start" xml:space="preserve">Lambda</text>
  <text fill="#ffffff" stroke="#42affa" stroke-width="0" stroke-dasharray="null" stroke-opacity="null" opacity="undefined" x="339.72501" y="93.34849" id="svg_101" font-size="16" font-family="sans-serif" text-anchor="start" xml:space="preserve">DynamoDB</text>
  <rect fill="none" stroke-width="3" stroke-dasharray="null" fill-opacity="null" opacity="undefined" x="5.40908" y="5.5707" width="234.93937" height="105" id="svg_103" stroke="#42affa"/>
  <rect fill="none" stroke-width="3" stroke-dasharray="null" fill-opacity="null" opacity="undefined" x="321.57068" y="5.57069" width="113.72726" height="105" id="svg_105" stroke="#42affa"/>
  <line fill="none" stroke="#42affa" stroke-width="3" stroke-dasharray="null" stroke-opacity="null" fill-opacity="null" opacity="undefined" x1="252.9697" y1="58.87879" x2="308.62627" y2="58.87879" id="svg_123" stroke-linejoin="null" stroke-linecap="null"/>
 </g>
</svg>