<svg width="370" height="115" xmlns="http://www.w3.org/2000/svg">
 <!-- Created with Method Draw - http://github.com/duopixel/Method-Draw/ -->
 <g id="Layer_1">
  <title>Layer 1</title>
  <!-- Generator: Sketch 64 (93537) - https://sketch.com -->
  <desc>Created with Sketch.</desc>
  <defs>
   <linearGradient x1="0%" y1="100%" x2="100%" y2="0%" id="svg_43">
    <stop stop-color="#B0084D" offset="0%"/>
    <stop stop-color="#FF4F8B" offset="100%"/>
   </linearGradient>
   <linearGradient x1="0%" y1="100%" x2="100%" y2="0%" id="svg_57">
    <stop stop-color="#C8511B" offset="0%"/>
    <stop stop-color="#FF9900" offset="100%"/>
   </linearGradient>
   <linearGradient x1="0%" y1="100%" x2="100%" y2="0%" id="svg_85">
    <stop stop-color="#BD0816" offset="0%"/>
    <stop stop-color="#FF5252" offset="100%"/>
   </linearGradient>
  </defs>


  <g id="svg_46" stroke="null">
   <g id="svg_39" fill="none" fill-rule="evenodd" transform="matrix(2.0625 0 0 2.0625 229.887 275.166)" stroke="null">
    <g id="svg_42" fill="url(#svg_43)" stroke="null">
     <rect x="-33.74082" y="-122.21959" width="24" height="24" id="svg_45" stroke="null"/>
    </g>
    <g id="svg_40" fill="#FFFFFF" stroke="null">
     <path d="m-27.74082,-115.45207l2,-1.33305l0,13.13148l-2,-1.33305l0,-10.46538zm-1,-0.26801l0,11.0004c0,0.167 0.084,0.32401 0.223,0.41601l3,2.00008c0.084,0.056 0.18,0.084 0.277,0.084c0.081,0 0.162,-0.019 0.236,-0.059c0.162,-0.08701 0.264,-0.25601 0.264,-0.44102l0,-2.50009l1,0l0,-1.00004l-1,0l0,-8.00029l1,0l0,-1.00004l-1,0l0,-2.50009c0,-0.184 -0.102,-0.35401 -0.264,-0.44001c-0.162,-0.08701 -0.359,-0.07801 -0.513,0.024l-3,2.00007c-0.139,0.093 -0.223,0.24901 -0.223,0.41602l0,0zm14,10.73339l-2,1.33305l0,-13.13148l2,1.33305l0,10.46538zm0.777,-11.14941l-3,-2.00007c-0.154,-0.10201 -0.351,-0.11101 -0.513,-0.024c-0.162,0.086 -0.264,0.25601 -0.264,0.44001l0,2.50009l-1,0l0,1.00004l1,0l0,8.00029l-1,0l0,1.00004l1,0l0,2.50009c0,0.18501 0.102,0.35401 0.264,0.44102c0.074,0.04 0.155,0.059 0.236,0.059c0.097,0 0.193,-0.028 0.277,-0.084l3,-2.00008c0.139,-0.092 0.223,-0.24901 0.223,-0.41601l0,-11.0004c0,-0.16701 -0.084,-0.32302 -0.223,-0.41602l0,0zm-6.777,1.91607l1,0l0,-1.00004l-1,0l0,1.00004zm-2,0l1,0l0,-1.00004l-1,0l0,1.00004zm2,9.00033l1,0l0,-1.00004l-1,0l0,1.00004zm-2,0l1,0l0,-1.00004l-1,0l0,1.00004zm2.18,-2.11508l-3,-2.50009c-0.115,-0.096 -0.18,-0.23601 -0.18,-0.38501c0,-0.14801 0.065,-0.28901 0.18,-0.38402l3,-2.50009l0.64,0.76903l-2.539,2.11508l2.539,2.11607l-0.64,0.76903z" id="svg_41" stroke="null"/>
    </g>
   </g>
  </g>
  <!-- Generator: Sketch 64 (93537) - https://sketch.com -->
  <desc>Created with Sketch.</desc>

  <g id="svg_60" stroke="null">
   <g id="svg_54" fill="none" fill-rule="evenodd" transform="matrix(2.0625 0 0 2.0625 243.005 191.882)" stroke="null">
    <g id="svg_56" fill="url(#svg_57)" stroke="null">
     <rect id="svg_58" x="22.53294" y="-81.83957" width="24" height="24" stroke="null"/>
    </g>
    <path d="m30.88766,-62.83957l-3.02095,0l3.54301,-7.194l1.51253,3.026l-2.03459,4.168zm0.98222,-8.565c-0.08667,-0.173 -0.26723,-0.282 -0.46429,-0.282l-0.00206,0c-0.19706,0 -0.37762,0.111 -0.46325,0.284l-4.35705,8.848c-0.07635,0.154 -0.065,0.337 0.02888,0.482c0.09492,0.145 0.25897,0.233 0.43643,0.233l4.16515,0c0.20016,0 0.38174,-0.111 0.46738,-0.286l2.28015,-4.671c0.06603,-0.136 0.065,-0.295 -0.00206,-0.432l-2.08928,-4.176zm9.63132,8.565l-3.16952,0l-5.62403,-11.711c-0.0846,-0.176 -0.26722,-0.289 -0.46738,-0.289l-2.09134,0l0.00206,-2l4.17031,0l5.59823,11.71c0.08461,0.177 0.26826,0.29 0.46842,0.29l1.11325,0l0,2zm0.51587,-3l-1.3,0l-5.5972,-11.71c-0.08461,-0.177 -0.26826,-0.29 -0.46945,-0.29l-5.01427,0c-0.28476,0 -0.51587,0.224 -0.51587,0.5l-0.00309,3c0,0.132 0.05468,0.259 0.15166,0.354c0.09595,0.093 0.22699,0.146 0.36421,0.146l2.27809,0l5.62403,11.711c0.0846,0.176 0.26722,0.289 0.46738,0.289l4.01451,0c0.28476,0 0.51587,-0.224 0.51587,-0.5l0,-3c0,-0.276 -0.23111,-0.5 -0.51587,-0.5l0,0z" id="svg_55" fill="#FFFFFF" stroke="null"/>
   </g>
  </g>
  <!-- Generator: Sketch 64 (93537) - https://sketch.com -->
  <desc>Created with Sketch.</desc>

  <!-- Generator: Sketch 64 (93537) - https://sketch.com -->
  <desc>Created with Sketch.</desc>

  <g id="svg_88" stroke="null">
   <g id="svg_82" fill="none" fill-rule="evenodd" transform="matrix(2.13742 0 0 2.13742 329.318 203.446)" stroke="null">
    <g id="svg_84" fill="url(#svg_85)" stroke="null">
     <rect id="svg_86" x="-138.91606" y="-84.22061" width="24" height="24" stroke="null"/>
    </g>
    <path d="m-123.72806,-67.32961l-1.25,-1l0.625,-0.781l0.824,0.659l1.697,-2.546l0.833,0.555l-2,3c-0.079,0.116 -0.202,0.195 -0.339,0.217c-0.027,0.003 -0.052,0.005 -0.078,0.005c-0.112,0 -0.222,-0.038 -0.312,-0.109l0,0zm-9.188,-4.891l2,0l0,-1l-2,0l0,1zm0.001,-2l3,0l0,-1l-3,0l0,1zm12,-3l0,-0.5c0,-0.276 -0.224,-0.5 -0.5,-0.5l-7,0c-0.277,0 -0.5,0.224 -0.5,0.5l0,0.5l-5.001,0l0,-1.4c0,-0.319 0.198,-0.6 0.422,-0.6l13.156,0c0.225,0 0.423,0.281 0.423,0.6l0,1.4l-1,0zm-2.376,5c1.862,0 3.376,1.571 3.376,3.5c0,1.93 -1.514,3.5 -3.376,3.5c-1.861,0 -3.375,-1.57 -3.375,-3.5c0,-1.929 1.514,-3.5 3.375,-3.5l0,0zm4.375,0l0,-6.4c0,-0.882 -0.638,-1.6 -1.422,-1.6l-13.156,0c-0.784,0 -1.422,0.718 -1.422,1.6l0,8.8c0,0.883 0.638,1.6 1.422,1.6l5.877,0c0.246,2.244 2.08,4 4.326,4c2.413,0 4.375,-2.018 4.375,-4.5c0,-2.481 -1.962,-4.5 -4.375,-4.5c-2.246,0 -4.08,1.757 -4.326,4l-5.877,0c-0.224,0 -0.422,-0.28 -0.422,-0.6l0,-6.4l5.001,0l0,4l1,0l0,-4l0,-1l5.999,0l0,1l0,2l1.001,0l0,-2l1,0l0,4l0.999,0z" id="svg_83" fill="#FFFFFF" stroke="null"/>
   </g>
  </g>
  <text fill="#000000" stroke="#42affa" stroke-width="0" stroke-dasharray="null" stroke-opacity="null" fill-opacity="null" opacity="undefined" x="708.5" y="76.5" id="svg_89" font-size="18" font-family="sans-serif" text-anchor="start" xml:space="preserve">ABABAmbdmsb</text>
  <text fill="#ffffff" stroke="#42affa" stroke-width="0" stroke-dasharray="null" stroke-opacity="null" opacity="undefined" x="138.35859" y="92.33838" id="svg_99" font-size="16" font-family="sans-serif" text-anchor="start" xml:space="preserve">API Gateway</text>
  <text fill="#ffffff" stroke="#42affa" stroke-width="0" stroke-dasharray="null" stroke-opacity="null" opacity="undefined" x="285.31562" y="92.33838" id="svg_100" font-size="16" font-family="sans-serif" text-anchor="start" xml:space="preserve">Lambda</text>
  <text fill="#ffffff" stroke="#42affa" stroke-width="0" stroke-dasharray="null" stroke-opacity="null" opacity="undefined" x="30.46849" y="94.70202" id="svg_102" font-size="16" font-family="sans-serif" text-anchor="start" xml:space="preserve">Cognito</text>
  <rect fill="none" stroke-width="3" stroke-dasharray="null" fill-opacity="null" opacity="undefined" x="131.40908" y="5.5707" width="234.93937" height="105" id="svg_103" stroke="#42affa"/>
  <rect stroke="#42affa" fill="none" stroke-width="3" stroke-dasharray="null" fill-opacity="null" opacity="undefined" x="4.40908" y="4.90403" width="106.93937" height="105" id="svg_104"/>
  <line fill="none" stroke="#42affa" stroke-width="3" stroke-dasharray="null" stroke-opacity="null" fill-opacity="null" opacity="undefined" x1="95.80807" y1="51.21213" x2="151.46464" y2="51.21213" id="svg_110" stroke-linejoin="null" stroke-linecap="null"/>
 </g>
</svg>