<svg width="480" height="115" xmlns="http://www.w3.org/2000/svg">
 <!-- Created with Method Draw - http://github.com/duopixel/Method-Draw/ -->
 <g id="Layer_1">
  <title>Layer 1</title>
  <rect fill="none" stroke-width="3" stroke-dasharray="null" fill-opacity="null" opacity="undefined" x="239.40908" y="4.22727" width="234.93937" height="105" id="svg_96" stroke="#42affa"/>
  <!-- Generator: Sketch 64 (93537) - https://sketch.com -->
  <desc>Created with Sketch.</desc>
  <defs>
   <linearGradient x1="0%" y1="100%" x2="100%" y2="0%" id="svg_11">
    <stop stop-color="#4D27A8" offset="0%"/>
    <stop stop-color="#A166FF" offset="100%"/>
   </linearGradient>
   <linearGradient x1="0%" y1="100%" x2="100%" y2="0%" id="svg_26">
    <stop stop-color="#1B660F" offset="0%"/>
    <stop stop-color="#6CAE3E" offset="100%"/>
   </linearGradient>
   <linearGradient x1="0%" y1="100%" x2="100%" y2="0%" id="svg_85">
    <stop stop-color="#BD0816" offset="0%"/>
    <stop stop-color="#FF5252" offset="100%"/>
   </linearGradient>
  </defs>


  <!-- Generator: Sketch 64 (93537) - https://sketch.com -->
  <desc>Created with Sketch.</desc>

  <!-- Generator: Sketch 64 (93537) - https://sketch.com -->
  <desc>Created with Sketch.</desc>

  <!-- Generator: Sketch 64 (93537) - https://sketch.com -->
  <desc>Created with Sketch.</desc>

  <g id="svg_88" stroke="null">
   <g id="svg_82" fill="none" fill-rule="evenodd" transform="matrix(2.13742 0 0 2.13742 329.318 203.446)" stroke="null">
    <g id="svg_84" fill="url(#svg_85)" stroke="null">
     <rect id="svg_86" x="-138.91606" y="-84.22061" width="24" height="24" stroke="null"/>
    </g>
    <path d="m-123.72806,-67.32961l-1.25,-1l0.625,-0.781l0.824,0.659l1.697,-2.546l0.833,0.555l-2,3c-0.079,0.116 -0.202,0.195 -0.339,0.217c-0.027,0.003 -0.052,0.005 -0.078,0.005c-0.112,0 -0.222,-0.038 -0.312,-0.109l0,0zm-9.188,-4.891l2,0l0,-1l-2,0l0,1zm0.001,-2l3,0l0,-1l-3,0l0,1zm12,-3l0,-0.5c0,-0.276 -0.224,-0.5 -0.5,-0.5l-7,0c-0.277,0 -0.5,0.224 -0.5,0.5l0,0.5l-5.001,0l0,-1.4c0,-0.319 0.198,-0.6 0.422,-0.6l13.156,0c0.225,0 0.423,0.281 0.423,0.6l0,1.4l-1,0zm-2.376,5c1.862,0 3.376,1.571 3.376,3.5c0,1.93 -1.514,3.5 -3.376,3.5c-1.861,0 -3.375,-1.57 -3.375,-3.5c0,-1.929 1.514,-3.5 3.375,-3.5l0,0zm4.375,0l0,-6.4c0,-0.882 -0.638,-1.6 -1.422,-1.6l-13.156,0c-0.784,0 -1.422,0.718 -1.422,1.6l0,8.8c0,0.883 0.638,1.6 1.422,1.6l5.877,0c0.246,2.244 2.08,4 4.326,4c2.413,0 4.375,-2.018 4.375,-4.5c0,-2.481 -1.962,-4.5 -4.375,-4.5c-2.246,0 -4.08,1.757 -4.326,4l-5.877,0c-0.224,0 -0.422,-0.28 -0.422,-0.6l0,-6.4l5.001,0l0,4l1,0l0,-4l0,-1l5.999,0l0,1l0,2l1.001,0l0,-2l1,0l0,4l0.999,0z" id="svg_83" fill="#FFFFFF" stroke="null"/>
   </g>
  </g>
  <text fill="#000000" stroke="#42affa" stroke-width="0" stroke-dasharray="null" stroke-opacity="null" fill-opacity="null" opacity="undefined" x="708.5" y="76.5" id="svg_89" font-size="18" font-family="sans-serif" text-anchor="start" xml:space="preserve">ABABAmbdmsb</text>
  <g id="svg_94" stroke="null">
   <path fill="#42affa" d="m184.42683,27.64912l-52.16675,0c-2.88004,0 -5.21668,2.33664 -5.21668,5.21668l0,34.77783c0,2.88004 2.33664,5.21668 5.21668,5.21668l20.8667,0l-1.73889,5.21668l-7.82501,0c-1.44545,0 -2.60834,1.16288 -2.60834,2.60834s1.16288,2.60834 2.60834,2.60834l29.56116,0c1.44545,0 2.60834,-1.16288 2.60834,-2.60834s-1.16288,-2.60834 -2.60834,-2.60834l-7.82501,0l-1.73889,-5.21668l20.8667,0c2.88004,0 5.21668,-2.33664 5.21668,-5.21668l0,-34.77783c0,-2.88004 -2.33664,-5.21668 -5.21668,-5.21668l-0.00001,0zm-1.73889,38.25562l-48.68897,0l0,-31.30005l48.68897,0l0,31.30005z" id="svg_93" stroke="null"/>
  </g>
  <g id="svg_14" stroke="null">
   <g id="svg_8" fill="none" fill-rule="evenodd" stroke="null">
    <g id="svg_10" fill="url(#svg_11)" stroke="null">
     <rect id="svg_12" x="268.54609" y="23.77523" width="49" height="49" stroke="null"/>
    </g>
    <path d="m301.21275,55.41713c0,-0.56372 -0.45938,-1.02126 -1.02083,-1.02126c-0.56146,0 -1.02083,0.45754 -1.02083,1.02126c0,0.56375 0.45938,1.02128 1.02083,1.02128c0.56146,0 1.02083,-0.45754 1.02083,-1.02128m2.04167,0c0,1.68919 -1.37404,3.06383 -3.0625,3.06383c-1.68846,0 -3.0625,-1.37463 -3.0625,-3.06383c0,-1.68917 1.37404,-3.06381 3.0625,-3.06381c1.68846,0 3.0625,1.37463 3.0625,3.06381m-16.33333,-8.17016c0,-0.56375 -0.45938,-1.02126 -1.02083,-1.02126c-0.56146,0 -1.02083,0.45752 -1.02083,1.02126c0,0.56375 0.45938,1.02128 1.02083,1.02128c0.56146,0 1.02083,-0.45754 1.02083,-1.02128m2.04167,0c0,1.68919 -1.37404,3.06381 -3.0625,3.06381c-1.68846,0 -3.0625,-1.37461 -3.0625,-3.06381c0,-1.68917 1.37404,-3.06381 3.0625,-3.06381c1.68846,0 3.0625,1.37463 3.0625,3.06381m4.08333,-8.17016c0,0.56375 0.45938,1.02126 1.02083,1.02126c0.56146,0 1.02083,-0.45752 1.02083,-1.02126c0,-0.56375 -0.45938,-1.02126 -1.02083,-1.02126c-0.56146,0 -1.02083,0.45752 -1.02083,1.02126m-2.04167,0c0,-1.68917 1.37404,-3.06381 3.0625,-3.06381c1.68846,0 3.0625,1.37463 3.0625,3.06381c0,1.68917 -1.37404,3.06381 -3.0625,3.06381c-1.68846,0 -3.0625,-1.37463 -3.0625,-3.06381m16.33333,9.19144c0,-4.60798 -2.23971,-8.89528 -5.91879,-11.56488c-0.37567,-0.1205 -1.41692,0.18587 -3.13396,0.92324c-0.30829,0.13071 -0.56963,0.24102 -0.75338,0.30841l-0.69417,-1.92203c0.15925,-0.05515 0.38179,-0.15321 0.64517,-0.26554c0.45121,-0.192 0.89425,-0.37583 1.32708,-0.53922c-1.80483,-0.79864 -3.76483,-1.23778 -5.76363,-1.23778c-1.40263,0 -2.77258,0.20017 -4.07925,0.59437c-0.09392,0.02656 -0.17763,0.07354 -0.2695,0.10212c0.71458,0.26758 1.56596,0.61277 2.57658,1.06622l-0.833,1.8628c-2.46225,-1.10501 -3.871,-1.51557 -4.52638,-1.66876c-3.70563,2.14875 -6.28425,5.87026 -6.94779,10.16164c0.65742,-0.08579 1.32096,-0.13685 2.02738,-0.15523l0.05104,2.04252c-0.81054,0.02044 -1.54963,0.10623 -2.28871,0.22673c0,0.02044 -0.00204,0.0429 -0.00204,0.06537c0,4.69783 2.29688,9.02598 6.076,11.68127c-0.41038,-1.43182 -0.7595,-3.14551 -0.7595,-4.8735c0,-0.31862 -0.01021,-0.65566 -0.02042,-0.99676c-0.03267,-0.97428 -0.06533,-1.98125 0.11433,-2.89835l2.00288,0.39421c-0.13679,0.68833 -0.10617,1.57684 -0.07758,2.43675c0.01225,0.36562 0.02246,0.72306 0.02246,1.06416c0,1.83421 0.50838,4.13207 1.37404,6.35434c2.50513,1.05395 5.27158,1.3583 7.91554,0.91916c0.22867,-0.42077 0.50633,-0.84766 0.80033,-1.28068c0.43692,-0.64545 0.88813,-1.31132 1.06371,-1.9159l1.96204,0.56987c-0.18375,0.63727 -0.51858,1.21326 -0.87179,1.77088c1.22092,-0.48818 2.38263,-1.10297 3.42592,-1.91386c3.53208,-2.73293 5.55538,-6.85682 5.55538,-11.31159m2.04167,0c0,5.09204 -2.31321,9.80419 -6.3455,12.92518c-1.42713,1.10707 -3.0135,1.96086 -4.71625,2.53481c-1.67825,0.58212 -3.4545,0.88033 -5.27158,0.88033c-2.68275,0 -5.34713,-0.66995 -7.70729,-1.9343c-5.32058,-2.84933 -8.62604,-8.36828 -8.62604,-14.40602c0,-0.33704 0.00817,-0.67201 0.03675,-1.00085c0.39608,-6.80371 5.0715,-12.70666 11.63138,-14.65933c4.11192,-1.23982 8.85471,-0.73735 12.64813,1.40936c5.15113,2.8861 8.35042,8.34582 8.35042,14.25081m-18.22188,-6.25017l-1.33933,-1.53805c-1.0535,0.91508 -1.33525,1.38484 -1.80688,2.16102c-0.13679,0.22671 -0.29604,0.49225 -0.50838,0.81701l1.71092,1.11318c0.22458,-0.34723 0.39608,-0.6291 0.54513,-0.87216c0.4165,-0.68835 0.588,-0.97226 1.39854,-1.68101m-0.86975,4.96337l-0.6615,1.93019c2.27238,0.78229 4.25892,2.03234 6.25158,3.93188l1.40671,-1.4788c-2.21113,-2.10994 -4.4345,-3.50295 -6.99679,-4.38327m5.38183,-4.67946l1.70683,-1.12137c1.96408,2.99641 3.06863,6.28695 3.28504,9.78173l-2.03758,0.12664c-0.19192,-3.13531 -1.18825,-6.09291 -2.95429,-8.78701" id="svg_9" fill="#FFFFFF" stroke="null"/>
   </g>
  </g>
  <g id="svg_29" stroke="null">
   <g id="svg_22" fill="none" fill-rule="evenodd" transform="matrix(2.0625 0 0 2.0625 228.29 181.128)" stroke="null">
    <g id="svg_25" fill="url(#svg_26)" stroke="null">
     <rect y="-76.29244" width="24" height="24" id="svg_28" x="82.03116" stroke="null"/>
    </g>
    <g id="svg_23" fill="#FFFFFF" stroke="null">
     <path d="m99.93936,-63.24164l0.041,-0.244c0.266,0.153 0.47,0.282 0.615,0.385c-0.17,-0.028 -0.398,-0.078 -0.656,-0.141l0,0zm-1.859,5.042c-0.05,0.303 -1.07,0.907 -4.571,0.907c-3.434,0 -4.435,-0.603 -4.485,-0.91l-1.734,-10.125c1.437,0.703 3.893,1.035 6.241,1.035c2.35,0 4.811,-0.334 6.248,-1.038l-0.808,4.813c-1.555,-0.508 -3.372,-1.377 -4.296,-1.82l-0.17,-0.082c-0.065,-0.489 -0.467,-0.873 -0.974,-0.873c-0.552,0 -1,0.449 -1,1c0,0.551 0.448,1 1,1c0.221,0 0.414,-0.086 0.579,-0.207l0.134,0.064c0.971,0.466 2.906,1.39 4.56,1.913l-0.724,4.323zm-4.549,-13.093c4.261,0 6.471,1.037 6.5,1.49l0,0.029c-0.054,0.458 -2.265,1.481 -6.5,1.481c-4.23,0 -6.441,-1.02 -6.5,-1.479l0,-0.032c0.03,-0.454 2.242,-1.489 6.5,-1.489l0,0zm7.5,1.5c0,-1.718 -3.888,-2.5 -7.5,-2.5c-3.613,0 -7.5,0.782 -7.5,2.5l0.047,0.316l1.96,11.439c0.19,1.17 1.929,1.745 5.471,1.745c4.729,0 5.436,-1.009 5.557,-1.743l0.707,-4.214c0.578,0.14 0.989,0.196 1.281,0.196c0.462,0 0.638,-0.135 0.76,-0.279c0.146,-0.174 0.202,-0.393 0.159,-0.617c-0.093,-0.475 -0.612,-0.927 -1.817,-1.583l0.829,-4.946l0.046,-0.314z" id="svg_24" stroke="null"/>
    </g>
   </g>
  </g>
  <text fill="#ffffff" stroke="#42affa" stroke-width="0" stroke-dasharray="null" stroke-opacity="null" opacity="undefined" x="253.46796" y="92.02525" id="svg_97" font-size="16" font-family="sans-serif" text-anchor="start" xml:space="preserve">CloudFront</text>
  <text fill="#ffffff" stroke="#42affa" stroke-width="0" stroke-dasharray="null" stroke-opacity="null" opacity="undefined" x="412.44065" y="92.02525" id="svg_98" font-size="16" font-family="sans-serif" text-anchor="start" xml:space="preserve">S3</text>
  <text fill="#ffffff" stroke="#42affa" stroke-width="0" stroke-dasharray="null" stroke-opacity="null" opacity="undefined" x="30.46849" y="94.70202" id="svg_102" font-size="16" font-family="sans-serif" text-anchor="start" xml:space="preserve">Cognito</text>
  <rect stroke="#42affa" fill="none" stroke-width="3" stroke-dasharray="null" fill-opacity="null" opacity="undefined" x="4.40908" y="4.90403" width="100.93937" height="105" id="svg_104"/>
  <line stroke="#42affa" fill="none" stroke-width="3" stroke-dasharray="null" stroke-opacity="null" fill-opacity="null" opacity="undefined" x1="91.85859" y1="52.26262" x2="119.46464" y2="52.26262" id="svg_114" stroke-linejoin="null" stroke-linecap="null"/>
  <line stroke="#42affa" fill="none" stroke-width="3" stroke-dasharray="null" stroke-opacity="null" fill-opacity="null" opacity="undefined" x1="197.85859" y1="53.83839" x2="230.46463" y2="53.83839" id="svg_117" stroke-linejoin="null" stroke-linecap="null"/>
 </g>
</svg>