<svg width="590" height="390" xmlns="http://www.w3.org/2000/svg">
 <!-- Created with Method Draw - http://github.com/duopixel/Method-Draw/ -->

 <g id="Layer_1">
  <title>Layer 1</title>
  <rect stroke="#42affa" id="svg_104" height="105" width="234.93937" y="275.90403" x="149.40908" opacity="undefined" fill-opacity="null" stroke-dasharray="null" stroke-width="3" fill="none"/>
  <rect stroke="#42affa" id="svg_105" height="105" width="113.72726" y="142.57069" x="465.57068" opacity="undefined" fill-opacity="null" stroke-dasharray="null" stroke-width="3" fill="none"/>
  <rect stroke="#42affa" id="svg_103" height="105" width="234.93937" y="142.5707" x="149.40908" opacity="undefined" fill-opacity="null" stroke-dasharray="null" stroke-width="3" fill="none"/>
  <rect stroke="#42affa" id="svg_96" height="105" width="234.93937" y="8.22727" x="149.40908" opacity="undefined" fill-opacity="null" stroke-dasharray="null" stroke-width="3" fill="none"/>
  <!-- Generator: Sketch 64 (93537) - https://sketch.com -->
  <desc>Created with Sketch.</desc>



  <!-- Generator: Sketch 64 (93537) - https://sketch.com -->
  <desc transform="matrix(14.0625,0,0,14.0625,0,0) ">Created with Sketch.</desc>

  <!-- Generator: Sketch 64 (93537) - https://sketch.com -->
  <desc transform="matrix(14.0625,0,0,14.0625,0,0) ">Created with Sketch.</desc>

  <!-- Generator: Sketch 64 (93537) - https://sketch.com -->
  <desc transform="matrix(14.0625,0,0,14.0625,0,0) ">Created with Sketch.</desc>

  <text xml:space="preserve" text-anchor="start" font-family="sans-serif" font-size="18" id="svg_89" y="76.5" x="708.5" opacity="undefined" fill-opacity="null" stroke-opacity="null" stroke-dasharray="null" stroke-width="0" stroke="#42affa" fill="#000000">ABABAmbdmsb</text>
  <g stroke="null" id="svg_94">
   <path stroke="null" id="svg_93" d="m63.42683,170.64912l-52.16675,0c-2.88004,0 -5.21668,2.33664 -5.21668,5.21668l0,34.77783c0,2.88004 2.33664,5.21668 5.21668,5.21668l20.8667,0l-1.73889,5.21668l-7.82501,0c-1.44545,0 -2.60834,1.16288 -2.60834,2.60834s1.16288,2.60834 2.60834,2.60834l29.56116,0c1.44545,0 2.60834,-1.16288 2.60834,-2.60834s-1.16288,-2.60834 -2.60834,-2.60834l-7.82501,0l-1.73889,-5.21668l20.8667,0c2.88004,0 5.21668,-2.33664 5.21668,-5.21668l0,-34.77783c0,-2.88004 -2.33664,-5.21668 -5.21668,-5.21668zm-1.73889,38.25562l-48.68897,0l0,-31.30005l48.68897,0l0,31.30005z" fill="#42affa"/>
  </g>
  <text xml:space="preserve" text-anchor="start" font-family="sans-serif" font-size="32" id="svg_97" y="71.83136" x="202.85005" opacity="undefined" stroke-opacity="null" stroke-dasharray="null" stroke-width="0" stroke="#42affa" fill="#ffffff">Frontend</text>
  <text xml:space="preserve" text-anchor="start" font-family="sans-serif" font-size="24" id="svg_101" y="203.39874" x="480.41256" opacity="undefined" stroke-opacity="null" stroke-dasharray="null" stroke-width="0" stroke="#42affa" fill="#ffffff">Storage</text>
  <text xml:space="preserve" text-anchor="start" font-family="sans-serif" font-size="24" id="svg_102" y="321.25757" x="163.34728" opacity="undefined" stroke-opacity="null" stroke-dasharray="null" stroke-width="0" stroke="#42affa" fill="#ffffff">Identity and Access</text>
  <line stroke-linecap="null" stroke-linejoin="null" id="svg_109" y2="196.21213" x2="136.46464" y1="196.21213" x1="80.80807" opacity="undefined" fill-opacity="null" stroke-opacity="null" stroke-dasharray="null" stroke-width="3" stroke="#42affa" fill="none"/>
  <line stroke-linecap="null" stroke-linejoin="null" id="svg_110" y2="196.21213" x2="136.46464" y1="196.21213" x1="80.80807" opacity="undefined" fill-opacity="null" stroke-opacity="null" stroke-dasharray="null" stroke-width="3" stroke="#42affa" fill="none"/>
  <line stroke-linecap="null" stroke-linejoin="null" id="svg_111" y2="58.83839" x2="136.46464" y1="58.83839" x1="50.85859" opacity="undefined" fill-opacity="null" stroke-opacity="null" stroke-dasharray="null" stroke-width="3" stroke="#42affa" fill="none"/>
  <line stroke-linecap="null" stroke-linejoin="null" id="svg_112" y2="58.83839" x2="136.46464" y1="58.83839" x1="50.85859" opacity="undefined" fill-opacity="null" stroke-opacity="null" stroke-dasharray="null" stroke-width="3" stroke="#42affa" fill="none"/>
  <line stroke-linecap="null" stroke-linejoin="null" id="svg_113" y2="326.26262" x2="136.46464" y1="326.26262" x1="50.85859" opacity="undefined" fill-opacity="null" stroke-opacity="null" stroke-dasharray="null" stroke-width="3" stroke="#42affa" fill="none"/>
  <line stroke-linecap="null" stroke-linejoin="null" id="svg_114" y2="326.26262" x2="136.46464" y1="326.26262" x1="50.85859" opacity="undefined" fill-opacity="null" stroke-opacity="null" stroke-dasharray="null" stroke-width="3" stroke="#42affa" fill="none"/>
  <line stroke-linecap="null" stroke-linejoin="null" id="svg_117" y2="58.83839" x2="136.46464" y1="58.83839" x1="50.85859" opacity="undefined" fill-opacity="null" stroke-opacity="null" stroke-dasharray="null" stroke-width="3" stroke="#42affa" fill="none"/>
  <line stroke-linecap="null" stroke-linejoin="null" id="svg_118" y2="160.60607" x2="50.85859" y1="57.87879" x1="50.85859" opacity="undefined" fill-opacity="null" stroke-opacity="null" stroke-dasharray="null" stroke-width="3" stroke="#42affa" fill="none"/>
  <line stroke-linecap="null" stroke-linejoin="null" id="svg_119" y2="327.27273" x2="50.85859" y1="237.87879" x1="50.85859" opacity="undefined" fill-opacity="null" stroke-opacity="null" stroke-dasharray="null" stroke-width="3" stroke="#42affa" fill="none"/>
  <line stroke-linecap="null" stroke-linejoin="null" id="svg_122" y2="196.21213" x2="136.46464" y1="196.21213" x1="80.80807" opacity="undefined" fill-opacity="null" stroke-opacity="null" stroke-dasharray="null" stroke-width="3" stroke="#42affa" fill="none"/>
  <line stroke-linecap="null" stroke-linejoin="null" id="svg_123" y2="195.87879" x2="452.62627" y1="195.87879" x1="396.9697" opacity="undefined" fill-opacity="null" stroke-opacity="null" stroke-dasharray="null" stroke-width="3" stroke="#42affa" fill="none"/>
  <text xml:space="preserve" text-anchor="start" font-family="sans-serif" font-size="32" id="svg_124" y="206.18363" x="204.62443" opacity="undefined" stroke-opacity="null" stroke-dasharray="null" stroke-width="0" stroke="#42affa" fill="#ffffff">Backend</text>
  <text stroke="#42affa" xml:space="preserve" text-anchor="start" font-family="sans-serif" font-size="24" id="svg_125" y="353.58081" x="197.35415" opacity="undefined" stroke-opacity="null" stroke-dasharray="null" stroke-width="0" fill="#ffffff">Management</text>
 </g>
</svg>